<svg width="24" height="24" viewBox="0 0 24 24" fill="none" xmlns="http://www.w3.org/2000/svg">
<path d="M3.09212 5H20.9079C21.5101 5.00328 22 5.49953 22 6.10552V17.8945C22 18.5021 21.5052 19 20.9014 19H3.09212C2.49154 18.9967 2 18.5005 2 17.8945V6.10552C2 5.49953 2.48991 5.00328 3.09212 5Z" fill="#FF9933"/>
<path d="M2 9.66602H22V14.3338H2V9.66602Z" fill="white"/>
<path d="M2 14.334H22V17.8946C22 18.5022 21.5052 19.0001 20.9014 19.0001H3.09212C2.49154 18.9968 2 18.5006 2 17.8946V14.334Z" fill="#128807"/>
<path d="M13.8555 11.9999C13.8555 10.9681 13.0254 10.1328 12 10.1328C10.9746 10.1328 10.1445 10.9681 10.1445 11.9999C10.1445 13.0301 10.9746 13.867 12 13.867C13.0254 13.867 13.8555 13.0317 13.8555 11.9999Z" fill="#000088"/>
<path d="M13.6228 12.0001C13.6228 11.0977 12.8969 10.3672 12 10.3672C11.1032 10.3672 10.3773 11.0977 10.3773 12.0001C10.3773 12.9025 11.1032 13.633 12 13.633C12.8969 13.633 13.6228 12.9025 13.6228 12.0001Z" fill="white"/>
<path d="M12.3239 11.9999C12.3239 11.8198 12.1791 11.6724 12 11.6724C11.821 11.6724 11.6761 11.8181 11.6761 11.9999C11.6761 12.1801 11.821 12.3258 12 12.3258C12.1791 12.3258 12.3239 12.1801 12.3239 11.9999Z" fill="#000088"/>
<path d="M13.6894 12.2244C13.6959 12.1802 13.6634 12.1392 13.6194 12.1327C13.5755 12.1261 13.5348 12.1589 13.5283 12.2031C13.5218 12.2473 13.5543 12.2883 13.5983 12.2948C13.6439 12.2997 13.6845 12.2686 13.6894 12.2244Z" fill="#000088"/>
<path d="M12 13.633L12.0554 12.6535L12 12.1868L11.9447 12.6535L12 13.633Z" fill="#000088"/>
<path d="M13.5739 12.6569C13.5918 12.6159 13.5706 12.5668 13.5299 12.5504C13.4892 12.5324 13.4404 12.5537 13.4241 12.5946C13.4062 12.6356 13.4274 12.6847 13.4681 12.7011C13.5104 12.7175 13.5576 12.6978 13.5739 12.6569Z" fill="#323546"/>
<path d="M11.5801 13.5772L11.8861 12.6453L11.9528 12.1802L11.7786 12.6175L11.5801 13.5772Z" fill="#323546"/>
<path d="M13.3525 13.045C13.3802 13.0089 13.3737 12.9582 13.3379 12.9303C13.3021 12.9025 13.2516 12.909 13.2239 12.9451C13.1963 12.9811 13.2028 13.0319 13.2386 13.0597C13.2744 13.0876 13.3248 13.0794 13.3525 13.045Z" fill="#323546"/>
<path d="M11.1879 13.415L11.7233 12.5945L11.9073 12.1621L11.6273 12.5372L11.1879 13.415Z" fill="#323546"/>
<path d="M13.0368 13.361C13.0726 13.3331 13.0792 13.2824 13.0515 13.2463C13.0238 13.2103 12.9734 13.2038 12.9375 13.2316C12.9017 13.2594 12.8952 13.3102 12.9229 13.3462C12.9506 13.3806 13.0027 13.3888 13.0368 13.361Z" fill="#323546"/>
<path d="M10.8525 13.1546L11.5801 12.5011L11.8682 12.1326L11.502 12.4225L10.8525 13.1546Z" fill="#323546"/>
<path d="M12.6526 13.5854C12.6933 13.5673 12.7145 13.5198 12.6966 13.4789C12.6787 13.438 12.6315 13.4167 12.5908 13.4347C12.5501 13.4511 12.5289 13.5002 12.5468 13.5411C12.5631 13.5821 12.6103 13.6017 12.6526 13.5854Z" fill="#323546"/>
<path d="M10.5938 12.8172L11.4661 12.375L11.8389 12.0933L11.4092 12.2783L10.5938 12.8172Z" fill="#323546"/>
<path d="M12.223 13.7C12.2669 13.6935 12.2979 13.6525 12.293 13.6083C12.2865 13.5641 12.2458 13.533 12.2018 13.5379C12.1579 13.5444 12.127 13.5854 12.1319 13.6296C12.1367 13.6754 12.1774 13.7066 12.223 13.7Z" fill="#323546"/>
<path d="M10.4326 12.4225L11.388 12.2227L11.821 12.0491L11.3587 12.1146L10.4326 12.4225Z" fill="#323546"/>
<path d="M11.777 13.7001C11.821 13.7066 11.8617 13.6739 11.8682 13.6297C11.8747 13.5854 11.8421 13.5445 11.7982 13.5379C11.7543 13.5314 11.7136 13.5642 11.707 13.6084C11.7022 13.6542 11.7331 13.6952 11.777 13.7001Z" fill="#323546"/>
<path d="M10.3773 12L11.3506 12.0557L11.8145 12L11.3506 11.9443L10.3773 12Z" fill="#323546"/>
<path d="M11.3473 13.5854C11.388 13.6034 11.4368 13.5821 11.4531 13.5411C11.4694 13.5002 11.4498 13.4511 11.4091 13.4347C11.3684 13.4167 11.3196 13.438 11.3033 13.4789C11.2871 13.5198 11.3066 13.5673 11.3473 13.5854Z" fill="#323546"/>
<path d="M10.4326 11.5774L11.3587 11.8853L11.821 11.9525L11.388 11.7772L10.4326 11.5774Z" fill="#323546"/>
<path d="M10.9616 13.361C10.9974 13.3888 11.0479 13.3823 11.0756 13.3462C11.1032 13.3102 11.0967 13.2594 11.0609 13.2316C11.0251 13.2038 10.9747 13.2103 10.947 13.2463C10.9209 13.2824 10.9275 13.3331 10.9616 13.361Z" fill="#323546"/>
<path d="M10.5938 11.1826L11.4092 11.7215L11.8389 11.9065L11.4661 11.6248L10.5938 11.1826Z" fill="#323546"/>
<path d="M10.6475 13.045C10.6752 13.081 10.7256 13.0876 10.7614 13.0597C10.7972 13.0319 10.8038 12.9811 10.7761 12.9451C10.7484 12.909 10.698 12.9025 10.6622 12.9303C10.628 12.9565 10.6198 13.0089 10.6475 13.045Z" fill="#323546"/>
<path d="M10.8525 10.8455L11.502 11.5776L11.8682 11.8691L11.5801 11.4989L10.8525 10.8455Z" fill="#323546"/>
<path d="M10.4244 12.6569C10.4423 12.6978 10.4895 12.7191 10.5302 12.7011C10.5709 12.6831 10.5921 12.6356 10.5742 12.5946C10.5563 12.5537 10.5091 12.5324 10.4684 12.5504C10.4277 12.5668 10.4082 12.6143 10.4244 12.6569Z" fill="#323546"/>
<path d="M11.1879 10.585L11.6273 11.4628L11.9073 11.8379L11.7233 11.4071L11.1879 10.585Z" fill="#323546"/>
<path d="M10.3106 12.2243C10.3171 12.2685 10.3578 12.2996 10.4017 12.2947C10.4456 12.2882 10.4766 12.2472 10.4717 12.203C10.4652 12.1588 10.4245 12.1277 10.3805 12.1326C10.335 12.1375 10.304 12.1784 10.3106 12.2243Z" fill="#323546"/>
<path d="M11.5801 10.4229L11.7786 11.3842L11.9528 11.8199L11.8861 11.3548L11.5801 10.4229Z" fill="#323546"/>
<path d="M10.3105 11.7755C10.304 11.8197 10.3366 11.8607 10.3805 11.8672C10.4245 11.8738 10.4651 11.841 10.4717 11.7968C10.4782 11.7526 10.4456 11.7117 10.4017 11.7051C10.3561 11.7002 10.3154 11.7313 10.3105 11.7755Z" fill="#323546"/>
<path d="M12 10.3672L11.9447 11.3466L12 11.8134L12.0554 11.3466L12 10.3672Z" fill="#323546"/>
<path d="M10.4261 11.3432C10.4082 11.3841 10.4293 11.4333 10.47 11.4497C10.5107 11.466 10.5596 11.4464 10.5758 11.4054C10.5937 11.3645 10.5726 11.3154 10.5319 11.299C10.4896 11.2826 10.4424 11.3023 10.4261 11.3432Z" fill="#323546"/>
<path d="M12.42 10.4229L12.114 11.3548L12.0472 11.8199L12.2214 11.3842L12.42 10.4229Z" fill="#323546"/>
<path d="M10.6475 10.9568C10.6198 10.9928 10.6264 11.0436 10.6622 11.0714C10.698 11.0993 10.7484 11.0927 10.7761 11.0567C10.8038 11.0207 10.7972 10.9699 10.7614 10.9421C10.7256 10.9142 10.6752 10.9208 10.6475 10.9568Z" fill="#323546"/>
<path d="M12.8122 10.585L12.2767 11.4071L12.0928 11.8379L12.3727 11.4628L12.8122 10.585Z" fill="#323546"/>
<path d="M10.9632 10.6389C10.9274 10.6667 10.9209 10.7175 10.9485 10.7535C10.9762 10.7895 11.0267 10.7961 11.0625 10.7683C11.0983 10.7404 11.1048 10.6896 11.0771 10.6536C11.0494 10.6176 10.9974 10.6127 10.9632 10.6389Z" fill="#323546"/>
<path d="M13.1475 10.8455L12.4199 11.4989L12.1318 11.8691L12.498 11.5776L13.1475 10.8455Z" fill="#323546"/>
<path d="M11.3473 10.4163C11.3066 10.4344 11.2871 10.4819 11.3033 10.5228C11.3212 10.5638 11.3684 10.585 11.4091 10.567C11.4498 10.549 11.471 10.5015 11.4531 10.4606C11.4368 10.418 11.3896 10.3983 11.3473 10.4163Z" fill="#323546"/>
<path d="M13.4063 11.1826L12.5339 11.6248L12.1611 11.9065L12.5908 11.7215L13.4063 11.1826Z" fill="#323546"/>
<path d="M11.777 10.2999C11.7331 10.3065 11.7022 10.3474 11.707 10.3916C11.7136 10.4358 11.7543 10.467 11.7982 10.4621C11.8421 10.4555 11.8747 10.4146 11.8682 10.3703C11.8633 10.3261 11.8226 10.2934 11.777 10.2999Z" fill="#323546"/>
<path d="M13.5674 11.5774L12.612 11.7772L12.1791 11.9525L12.6413 11.8853L13.5674 11.5774Z" fill="#323546"/>
<path d="M12.223 10.2999C12.179 10.2934 12.1383 10.3261 12.1318 10.3703C12.1253 10.4146 12.1579 10.4555 12.2018 10.4621C12.2457 10.4686 12.2864 10.4358 12.2929 10.3916C12.2978 10.3474 12.2669 10.3048 12.223 10.2999Z" fill="#323546"/>
<path d="M13.6227 12L12.6494 11.9443L12.1855 12L12.6494 12.0557L13.6227 12Z" fill="#323546"/>
<path d="M12.6526 10.4161C12.6119 10.3981 12.5631 10.4194 12.5468 10.4603C12.5289 10.5013 12.5501 10.5504 12.5908 10.5668C12.6315 10.5832 12.6803 10.5635 12.6966 10.5226C12.7128 10.48 12.6933 10.4325 12.6526 10.4161Z" fill="#323546"/>
<path d="M13.5674 12.4225L12.6413 12.1146L12.1791 12.0491L12.612 12.2227L13.5674 12.4225Z" fill="#323546"/>
<path d="M13.0368 10.6391C13.001 10.6112 12.9506 10.6178 12.9229 10.6538C12.8952 10.6898 12.9017 10.7406 12.9375 10.7685C12.9734 10.7963 13.0238 10.7898 13.0515 10.7537C13.0792 10.7177 13.0726 10.6669 13.0368 10.6391Z" fill="#323546"/>
<path d="M13.4063 12.8172L12.5908 12.2783L12.1611 12.0933L12.5339 12.375L13.4063 12.8172Z" fill="#323546"/>
<path d="M13.3525 10.9568C13.3248 10.9208 13.2744 10.9142 13.2386 10.9421C13.2028 10.9699 13.1963 11.0207 13.2239 11.0567C13.2516 11.0927 13.3021 11.0993 13.3379 11.0714C13.372 11.0436 13.3802 10.9912 13.3525 10.9568Z" fill="#323546"/>
<path d="M13.1475 13.1546L12.498 12.4225L12.1318 12.1326L12.4199 12.5011L13.1475 13.1546Z" fill="#323546"/>
<path d="M13.5755 11.3432C13.5576 11.3022 13.5104 11.2809 13.4697 11.2989C13.429 11.3169 13.4078 11.3644 13.4257 11.4054C13.4436 11.4463 13.4908 11.466 13.5315 11.4496C13.5722 11.4332 13.5917 11.3857 13.5755 11.3432Z" fill="#323546"/>
<path d="M12.8122 13.415L12.3727 12.5372L12.0928 12.1621L12.2767 12.5945L12.8122 13.415Z" fill="#323546"/>
<path d="M13.6895 11.7755C13.683 11.7313 13.6423 11.7002 13.5983 11.7051C13.5544 11.7117 13.5235 11.7526 13.5283 11.7968C13.5348 11.841 13.5755 11.8722 13.6195 11.8672C13.6651 11.8623 13.696 11.8214 13.6895 11.7755Z" fill="#323546"/>
<path d="M12.42 13.5772L12.2214 12.6175L12.0472 12.1802L12.114 12.6453L12.42 13.5772Z" fill="#323546"/>
</svg>
