<svg width="172" height="41" viewBox="0 0 172 41" fill="none" xmlns="http://www.w3.org/2000/svg">
    <g clip-path="url(#e0ujkcmn9a)">
        <path d="M178.599-6.747H-6.577v53.539H178.6V-6.747z" fill="#fff"/>
        <path d="M172.104-.06H38.674v40.99h133.43V-.06z" fill="#164890"/>
        <path d="M38.675-.06H-.081v40.99h38.756V-.06z" fill="#E2251E"/>
        <path d="M15.844 18.517c1.958-3.448 4.672-6.16 7.834-8.37 1.217-.855 2.623-1.436 3.989-2.03.465-.202 1.082-.171 1.598-.07 1.085.213 1.604 1.375.906 2.24a9.692 9.692 0 0 1-2.512 2.2c-2.511 1.495-4.831 3.189-6.553 5.644-2.011 2.867-2.661 6.043-1.862 9.49.73 3.16 2.952 5.148 6.065 5.405 4.144.342 7.589-1.075 10.075-4.632.468-.67.807-1.435 1.303-2.336-.058.509-.074.844-.134 1.17-.911 4.88-3.091 8.886-7.386 11.398-2.628 1.536-5.51 2.034-8.481 2.068-3.537.041-6.913-.711-10.08-2.37-5.094-2.664-7.798-7.042-8.453-12.844-.711-6.29 1.231-11.854 4.456-17.039.393-.63.914-1.196 1.457-1.697.375-.345.863-.638 1.349-.757 1.178-.291 1.907.448 1.56 1.647-.26.9-.716 1.754-1.176 2.575-1.012 1.803-2.14 3.542-2.459 5.664-.007.047 0 .096.137.296.14-.153.347-.28.405-.46 1.578-4.886 4.242-9.076 7.664-12.756.756-.812 1.725-1.46 2.696-1.985.501-.27 1.255-.244 1.834-.099.84.208 1.217 1 .814 1.78a12.015 12.015 0 0 1-1.795 2.606c-2.264 2.47-4.278 5.117-5.742 8.179-.43.898-.754 1.853-1.105 2.79-.074.194-.066.422.068.677.063-.083.157-.159.19-.252 1.241-3.628 3.518-6.531 6.037-9.259 1.644-1.78 3.443-3.376 5.583-4.494.91-.478 1.871-.854 2.931-.651 1.505.288 2.084 1.717 1.07 2.896-.695.807-1.555 1.51-2.448 2.08-3.597 2.295-6.774 5.024-8.932 8.862-.42.745-.733 1.555-1.097 2.336l.194.098z" fill="#fff"/>
        <path d="M31.142 30.052c.342-.838.67-1.49.88-2.182.44-1.464-.12-2.209-1.596-2.198-1.254.008-2.506.041-3.76.039-.423 0-.856-.034-1.263-.14-.832-.216-1.482-.706-1.644-1.63-.172-.976.01-1.89.867-2.47.425-.291.926-.55 1.42-.623 2.306-.35 4.626-.405 6.907.145 3.073.745 3.98 3.226 2.219 5.956-.954 1.479-2.295 2.423-4.03 3.103zM28.565 16.013c.012-1.754 1.358-3.114 3.04-3.07 1.611.042 2.909 1.41 2.919 3.078.01 1.736-1.33 3.104-3.03 3.085-1.68-.015-2.945-1.351-2.93-3.093zM62.105 26.627c-.956 1.1-2.064 1.925-3.326 2.48-1.263.556-2.672.833-4.227.833-3.468 0-6.374-1.227-8.722-3.684-2.344-2.458-3.518-5.525-3.518-9.205 0-3.757 1.161-6.845 3.486-9.264 2.324-2.418 5.311-3.627 8.961-3.627 1.427 0 2.722.205 3.88.615 1.159.41 2.105.996 2.836 1.759V4.632h3.495v8.28h-3.495c-.635-1.515-1.508-2.649-2.626-3.407-1.118-.757-2.458-1.136-4.026-1.136-2.426 0-4.364.791-5.816 2.371-1.449 1.583-2.175 3.685-2.175 6.311 0 2.515.751 4.588 2.254 6.226 1.502 1.637 3.392 2.457 5.668 2.457 1.599 0 2.977-.35 4.13-1.051 1.154-.7 2.16-1.798 3.02-3.29h-5.443v-3.584h11.355v3.584h-2.481v8.06h-3.109l-.121-2.826zM75.49 26.004h2.848v3.448H68.73v-3.448h2.557V8.08H68.73V4.632h9.285l4.693 14.236 4.74-14.236h8.946v3.449h-2.54V26h2.54v3.449h-9.61V26h2.85V9.225l-5.89 16.911h-2.28l-5.97-16.911v16.779h-.003zM97.31 21.426c0-2.38.786-4.375 2.362-5.991 1.575-1.617 3.536-2.424 5.88-2.424 2.348 0 4.305.807 5.874 2.424 1.568 1.616 2.355 3.612 2.355 5.991 0 2.367-.782 4.352-2.348 5.958-1.563 1.604-3.526 2.406-5.881 2.406-2.347 0-4.307-.802-5.88-2.406-1.576-1.606-2.363-3.591-2.363-5.958zm3.846 0c0 1.404.423 2.575 1.268 3.517.844.941 1.886 1.414 3.128 1.414 1.242 0 2.282-.467 3.122-1.407.84-.936 1.259-2.112 1.259-3.526 0-1.448-.417-2.637-1.252-3.568-.834-.932-1.877-1.396-3.129-1.396s-2.296.47-3.136 1.403c-.84.94-1.26 2.128-1.26 3.563zM120.934 15.603c.913-.908 1.803-1.567 2.668-1.977a6.346 6.346 0 0 1 2.75-.615c1.624 0 2.828.457 3.612 1.373.784.913 1.176 2.32 1.176 4.214v7.504h2.145v3.348h-8.127v-3.348h2.145v-6.614c0-.851-.208-1.508-.62-1.97-.415-.459-1.009-.69-1.783-.69-.698 0-1.374.195-2.024.581-.65.387-1.297.979-1.942 1.775V26.1h2.145v3.347h-8.127V26.1h2.145v-9.334h-2.145v-3.332h5.982v2.17zM149.832 24.725c-.437 1.637-1.308 2.906-2.613 3.804-1.302.898-2.931 1.346-4.879 1.346-2.471 0-4.464-.773-5.974-2.322-1.513-1.55-2.269-3.578-2.269-6.093 0-2.457.769-4.474 2.307-6.049 1.537-1.575 3.505-2.364 5.903-2.364 2.388 0 4.308.833 5.757 2.5 1.449 1.665 2.175 3.89 2.175 6.67v.406h-12.325c.123 1.235.579 2.182 1.36 2.844.782.661 1.837.994 3.16.994.824 0 1.563-.15 2.22-.454.658-.304 1.164-.73 1.518-1.28h3.66v-.002zm-11.921-4.915h8.651c-.304-1.11-.817-1.952-1.541-2.525-.726-.571-1.629-.859-2.714-.859-1.125 0-2.079.298-2.856.893-.776.597-1.29 1.427-1.54 2.49zM162.039 36.622h-8.613v-3.347h2.416l2.011-4.24-5.12-12.27h-1.915v-3.331h7.824v3.332h-2.044l3.301 8.247 3.43-8.247h-1.981v-3.332h7.68v3.332h-1.885l-7.517 16.509h2.415v3.347h-.002z" fill="#fff"/>
    </g>
    <defs>
        <clipPath id="e0ujkcmn9a">
            <path fill="#fff" d="M0 0h172v41H0z"/>
        </clipPath>
    </defs>
</svg>
