<svg width="20" height="22" viewBox="0 0 20 22" fill="none" xmlns="http://www.w3.org/2000/svg">
<path d="M15.4023 5.60938C15.4023 8.58685 12.9892 11 9.97382 11C7.03424 11 4.58319 8.58685 4.58319 5.60938C4.58319 2.63232 7.03424 0.21875 9.97382 0.21875C12.9892 0.21875 15.4023 2.63232 15.4023 5.60938ZM12.6691 15.4641C11.5447 15.7631 10.6476 16.8202 10.6476 18.0752V19.0859C10.6476 19.2628 10.7571 19.4355 10.8835 19.5618L11.5573 20.2357C11.8184 20.501 12.248 20.501 12.5091 20.2357C12.7744 19.9745 12.7744 19.545 12.5091 19.2839L11.9953 18.808V18.0752C11.9953 17.3298 12.6354 16.7275 13.343 16.7275C14.1263 16.7275 14.7285 17.3298 14.7285 18.0752V18.808L14.2526 19.2839C13.9873 19.545 13.9873 19.9745 14.2526 20.2357C14.5137 20.501 14.9433 20.501 15.2044 20.2357L15.8782 19.5618C16.0046 19.4355 16.0762 19.2628 16.0762 19.0859V18.0752C16.0762 16.8202 15.217 15.7631 14.0547 15.4641V13.2236C17.1501 13.9775 19.4453 16.7318 19.4453 20.0967V20.4336C19.4453 21.179 18.8431 21.7812 18.0977 21.7812H1.92578C1.18162 21.7812 0.578125 21.179 0.578125 20.4336V20.0967C0.578125 16.7697 2.87462 13.9775 5.96875 13.2236V15.8137C4.99591 16.1042 4.28418 17.0055 4.28418 18.0752C4.28418 19.3765 5.34125 20.4336 6.64258 20.4336C7.94391 20.4336 9.00098 19.3765 9.00098 18.0752C9.00098 17.0055 8.28925 16.1042 7.31641 15.8137V13.0299C7.43011 13.0257 7.53961 13.0215 7.65332 13.0215H12.3701C12.4838 13.0215 12.5933 13.0257 12.707 13.0299L12.6691 15.4641ZM7.61542 18.0752C7.61542 18.6353 7.2027 19.0859 6.60468 19.0859C6.08246 19.0859 5.59393 18.6353 5.59393 18.0752C5.59393 17.5151 6.08246 17.0645 6.60468 17.0645C7.2027 17.0645 7.61542 17.5151 7.61542 18.0752Z" fill="#323546"/>
</svg>
