<svg width="21" height="20" viewBox="0 0 21 20" fill="none" xmlns="http://www.w3.org/2000/svg">
<path d="M8.03483 0.199349C4.11916 0.966982 0.966081 4.12383 0.199287 8.03909C-0.958866 13.943 3.07581 19.1932 8.54184 19.9852C9.33838 20.1062 10.0574 19.4714 10.0574 18.6657L10.0574 18.6379C10.0574 17.9784 9.57806 17.4278 8.93278 17.3289C5.39841 16.785 2.68111 13.7199 2.68111 10.0297C2.68111 5.71804 6.39398 2.25699 10.7848 2.6802C14.6205 3.05182 17.4304 6.50369 17.4304 10.3565V11.0336C17.4304 11.9592 16.6787 12.7118 15.7543 12.7118C14.83 12.7118 14.0778 11.9592 14.0778 11.0336V6.0013C14.0778 5.63059 13.7778 5.33004 13.407 5.33004L12.067 5.33019C11.7612 5.33019 11.5139 5.53936 11.4335 5.81959C10.3922 5.31049 9.16073 5.13325 7.82743 5.60565C6.20375 6.18095 4.97311 7.65504 4.73846 9.36168C4.34111 12.2533 6.57416 14.725 9.38532 14.725C10.4932 14.725 11.4984 14.3251 12.3012 13.6825C13.3069 14.9941 15.0345 15.7227 16.8852 15.2534C18.8202 14.8049 20.1108 12.911 20.0731 10.9458V10.07C20.0731 3.81837 14.4625 -1.06029 8.03483 0.199349ZM9.34634 12.0813C8.23722 12.0813 7.33508 11.1779 7.33508 10.0679C7.33508 8.95798 8.23722 8.05459 9.34634 8.05459C10.4555 8.05459 11.3576 8.95798 11.3576 10.0679C11.3576 11.1779 10.4944 12.0813 9.34634 12.0813Z" fill="#323546"/>
</svg>
