
<svg width="16" height="20" viewBox="0 0 16 20" fill="none" xmlns="http://www.w3.org/2000/svg">
<path d="M4.00673e-05 0.861628V19.1384C4.00673e-05 19.4805 0.202449 19.7903 0.515975 19.9275C0.829335 20.0648 1.19432 20.0036 1.44579 19.7718L3.11106 18.2359C3.14747 18.2022 3.20269 18.2019 3.23978 18.2349L4.33148 19.2092C5.02571 19.8289 6.0701 19.826 6.76109 19.2027L7.8369 18.232C7.87349 18.199 7.9287 18.199 7.96529 18.232L9.04127 19.2027C9.73226 19.826 10.7766 19.8287 11.4709 19.2092L12.5628 18.2349C12.5997 18.2019 12.6549 18.2024 12.6913 18.2359L14.3566 19.7718C14.519 19.9215 14.7284 20 14.9409 20C15.0577 20 15.1753 19.9762 15.2864 19.9275C15.5998 19.7902 15.8024 19.4805 15.8024 19.1384L15.8022 0.861628C15.8022 0.385869 15.4163 0 14.9406 0H0.861628C0.385693 0 0 0.385842 0 0.861628H4.00673e-05ZM1.72325 1.72326H14.0787V17.172L13.8591 16.9694C13.1674 16.3316 12.1166 16.323 11.4148 16.9494L10.3229 17.9237C10.2863 17.9563 10.2314 17.9562 10.195 17.9234L9.11902 16.9527C8.77165 16.6393 8.33622 16.4827 7.90063 16.4827C7.46505 16.4827 7.02946 16.6393 6.68224 16.9527L5.60625 17.9234C5.56984 17.9562 5.51496 17.9563 5.47838 17.9237L4.38668 16.9494C3.68475 16.3229 2.63388 16.3314 1.94237 16.9692L1.72269 17.1718L1.72286 1.72352L1.72325 1.72326Z" fill="#323546"/>
<path d="M4.70147 8.22228H10.8451C11.3208 8.22228 11.7067 7.83644 11.7067 7.36065C11.7067 6.88489 11.3209 6.49902 10.8451 6.49902H4.70147C4.22571 6.49902 3.83984 6.88487 3.83984 7.36065C3.83984 7.83659 4.22552 8.22228 4.70147 8.22228Z" fill="#323546"/>
<path d="M4.70147 11.5504H10.8451C11.3208 11.5504 11.7067 11.1646 11.7067 10.6888C11.7067 10.213 11.3209 9.82715 10.8451 9.82715H4.70147C4.22571 9.82715 3.83984 10.213 3.83984 10.6888C3.83984 11.1647 4.22552 11.5504 4.70147 11.5504Z" fill="#323546"/>
</svg>
