<svg width="24" height="18" viewBox="0 0 24 18" fill="none" xmlns="http://www.w3.org/2000/svg">
<path d="M11.1521 3.49219C11.1521 3.18788 11.3995 2.94141 11.7018 2.94141H12.2514C12.5537 2.94141 12.801 3.18788 12.801 3.49219V4.31836H13.6254C13.9277 4.31836 14.175 4.56621 14.175 4.86914V5.41992C14.175 5.72285 13.9277 5.9707 13.6254 5.9707H12.801V6.79688C12.801 7.0998 12.5537 7.34766 12.2514 7.34766H11.7018C11.3995 7.34766 11.1521 7.0998 11.1521 6.79688V5.9707H10.3277C10.0254 5.9707 9.77813 5.72285 9.77813 5.41992V4.86914C9.77813 4.56621 10.0254 4.31836 10.3277 4.31836H11.1521V3.49219ZM14.9994 0.1875C16.3666 0.1875 17.4727 1.29732 17.4727 2.66602V2.94141H20.4955C21.8627 2.94141 22.9688 4.04985 22.9688 5.41992V15.334C22.9688 16.7041 21.8627 17.8125 20.4955 17.8125H3.45693C2.09012 17.8125 0.984375 16.7041 0.984375 15.334V5.41992C0.984375 4.04985 2.09184 2.94141 3.45762 2.94141H6.48047V2.66602C6.48047 1.29732 7.58656 0.1875 8.95371 0.1875H14.9994ZM17.4727 4.59375V16.1602H20.4955C20.9524 16.1602 21.3199 15.7918 21.3199 15.334V11.7539H19.3963C18.9394 11.7539 18.5719 11.3856 18.5719 10.9277C18.5719 10.4699 18.9394 10.1016 19.3963 10.1016H21.3199V8.44922H19.3963C18.9394 8.44922 18.5719 8.08088 18.5719 7.62305C18.5719 7.16521 18.9394 6.79688 19.3963 6.79688H21.3199V5.41992C21.3199 4.96208 20.9524 4.59375 20.4955 4.59375H17.4727ZM2.6332 5.41992V6.79688H4.55684C5.0137 6.79688 5.38125 7.16521 5.38125 7.62305C5.38125 8.08088 5.0137 8.44922 4.55684 8.44922H2.6332V10.1016H4.55684C5.0137 10.1016 5.38125 10.4699 5.38125 10.9277C5.38125 11.3856 5.0137 11.7539 4.55684 11.7539H2.6332V15.334C2.6332 15.7918 3.00213 16.1602 3.45693 16.1602H6.48047V4.59375H3.45762C3.00247 4.59375 2.6332 4.96208 2.6332 5.41992ZM8.1293 16.1602H10.3277V13.957C10.3277 13.0448 11.0663 12.3047 11.9766 12.3047C12.8869 12.3047 13.6254 13.0448 13.6254 13.957V16.1602H15.8238V2.66602C15.8238 2.2099 15.4563 1.83984 14.9994 1.83984H8.95371C8.49685 1.83984 8.1293 2.2099 8.1293 2.66602V16.1602Z" fill="#323546" stroke="#E1E8EF" stroke-width="0.2"/>
</svg>
