<svg width="22" height="21" viewBox="0 0 22 21" fill="none" xmlns="http://www.w3.org/2000/svg">
<path d="M11.4134 1.00158C10.7497 1.01924 10.0773 1.20175 9.46229 1.56583C7.49398 2.73075 6.81787 5.3069 7.95421 7.32471L13.9006 17.8829C15.0369 19.9007 17.5571 20.5938 19.5255 19.4289C21.4937 18.264 22.17 15.6804 21.0336 13.6625L15.0872 3.10429C14.306 1.71709 12.8732 0.963016 11.4134 1.00158ZM11.4419 1.93217C12.5762 1.89897 13.6811 2.48595 14.2936 3.57333L17.038 8.44588L11.4919 11.7282L8.74743 6.85567C7.85661 5.27387 8.37651 3.28499 9.91951 2.37165C10.4016 2.08627 10.9263 1.9472 11.4419 1.93217ZM11.7206 3.1851C11.4148 3.20112 11.1058 3.2932 10.8059 3.47081C10.5868 3.60034 10.5115 3.88719 10.6379 4.11172C10.7642 4.33625 11.0442 4.41346 11.2632 4.28394C11.6507 4.05464 11.9111 4.071 12.1995 4.21067C12.4878 4.35033 12.7957 4.66761 13.05 5.11915L13.5074 5.93247C13.6337 6.15702 13.9137 6.23421 14.1327 6.10469C14.3517 5.97516 14.4271 5.68814 14.3007 5.46361L13.8433 4.65029C13.5275 4.08947 13.1226 3.6175 12.5926 3.36073C12.3276 3.23234 12.0265 3.16907 11.7206 3.1851ZM17.4955 9.25883L20.2399 14.1314C21.1307 15.7132 20.6108 17.7021 19.0678 18.6154C17.5248 19.5286 15.5847 18.9956 14.6938 17.4138L11.9494 12.5413L17.4955 9.25883ZM5.57413 10.6217C3.05334 10.6217 1 12.7266 1 15.3108C1 17.895 3.05334 20 5.57413 20C8.09492 20 10.1483 17.895 10.1483 15.3108C10.1483 12.7266 8.09492 10.6217 5.57413 10.6217ZM5.57413 11.5594C7.60051 11.5594 9.23352 13.2334 9.23352 15.3108C9.23352 16.1785 8.94811 16.977 8.4687 17.6114L3.33709 12.3507C3.95546 11.8603 4.72877 11.5594 5.57413 11.5594ZM2.68675 13.01L7.8253 18.2778C7.20534 18.7727 6.42349 19.0619 5.57397 19.0619C3.54759 19.0619 1.91458 17.3878 1.91458 15.3105C1.91458 14.4406 2.20514 13.6451 2.68675 13.01Z" fill="#323546" stroke="#323546" stroke-width="0.5"/>
</svg>
