<svg width="18" height="18" viewBox="0 0 18 18" fill="none" xmlns="http://www.w3.org/2000/svg">
<path d="M10.7286 7.07143V7.27143H10.9286H16.7143C17.3138 7.27143 17.8 7.75764 17.8 8.35714V9.64286C17.8 10.2424 17.3138 10.7286 16.7143 10.7286H10.9286H10.7286V10.9286V16.7143C10.7286 17.3138 10.2424 17.8 9.64286 17.8H8.35714C7.75764 17.8 7.27143 17.3138 7.27143 16.7143V10.9286V10.7286H7.07143H1.28571C0.686216 10.7286 0.2 10.2424 0.2 9.64286V8.35714C0.2 7.75765 0.686216 7.27143 1.28571 7.27143H7.07143H7.27143V7.07143V1.28571C7.27143 0.686216 7.75765 0.2 8.35714 0.2H9.64286C10.2424 0.2 10.7286 0.686216 10.7286 1.28571V7.07143Z" fill="#323546" stroke="#E2E9F0" stroke-width="0.4"/>
</svg>
