<svg width="27" height="24" viewBox="0 0 27 24" fill="none" xmlns="http://www.w3.org/2000/svg">
<path d="M8.70833 15.2143C9.23941 15.2143 9.66667 15.6442 9.66667 16.1786C9.66667 16.7129 9.23941 17.1429 8.70833 17.1429H6.79167C6.26059 17.1429 5.83333 16.7129 5.83333 16.1786C5.83333 15.6442 6.26059 15.2143 6.79167 15.2143H8.70833ZM16.375 15.2143C16.9061 15.2143 17.3333 15.6442 17.3333 16.1786C17.3333 16.7129 16.9061 17.1429 16.375 17.1429H11.9028C11.3717 17.1429 10.9444 16.7129 10.9444 16.1786C10.9444 15.6442 11.3717 15.2143 11.9028 15.2143H16.375ZM22.4444 3C23.854 3 25 4.15112 25 5.57143V18.4286C25 19.8469 23.854 21 22.4444 21H4.55556C3.14401 21 2 19.8469 2 18.4286V5.57143C2 4.15112 3.14401 3 4.55556 3H22.4444ZM22.4444 4.92857H4.55556C4.20257 4.92857 3.91667 5.21625 3.91667 5.57143V6.85714H23.0833V5.57143C23.0833 5.21625 22.7958 4.92857 22.4444 4.92857ZM23.0833 10.7143H3.91667V18.4286C3.91667 18.7821 4.20257 19.0714 4.55556 19.0714H22.4444C22.7958 19.0714 23.0833 18.7821 23.0833 18.4286V10.7143Z" fill="#323546" stroke="#EBF2F9" stroke-width="0.4"/>
</svg>
